<svg id="Logo_on_dark_color" data-name="Logo on dark color" xmlns="http://www.w3.org/2000/svg" xmlns:xlink="http://www.w3.org/1999/xlink" width="372.169" height="185.58" viewBox="0 0 372.169 185.58">
  <defs>
    <clipPath id="clip-path">
      <rect id="Rectangle_80" data-name="Rectangle 80" width="372.169" height="185.58" fill="none"/>
    </clipPath>
  </defs>
  <rect id="Rectangle_79" data-name="Rectangle 79" width="372.169" height="141.287" fill="#1d3557"/>
  <g id="Group_83" data-name="Group 83">
    <g id="Group_82" data-name="Group 82" clip-path="url(#clip-path)">
      <path id="Path_263" data-name="Path 263" d="M27.113,63.87a.442.442,0,0,1-.073.258.633.633,0,0,1-.251.182,1.883,1.883,0,0,1-.475.115,6.6,6.6,0,0,1-.761.035,6.837,6.837,0,0,1-.782-.035,2.148,2.148,0,0,1-.489-.115.614.614,0,0,1-.258-.182.469.469,0,0,1-.073-.258V53.439a9.678,9.678,0,0,0-.192-1.984,4.549,4.549,0,0,0-.611-1.544,2.838,2.838,0,0,0-1.065-.992,3.247,3.247,0,0,0-1.526-.342,3.585,3.585,0,0,0-2.183.838,14.972,14.972,0,0,0-2.413,2.459v12a.42.42,0,0,1-.077.258.592.592,0,0,1-.258.182,2.068,2.068,0,0,1-.485.115,6.6,6.6,0,0,1-.761.035,6.678,6.678,0,0,1-.754-.035,2.085,2.085,0,0,1-.5-.115.533.533,0,0,1-.248-.182.467.467,0,0,1-.066-.258V53.439a8.753,8.753,0,0,0-.21-1.984,4.867,4.867,0,0,0-.629-1.544,2.881,2.881,0,0,0-1.062-.992A3.169,3.169,0,0,0,9.4,48.577a3.628,3.628,0,0,0-2.193.838A14.3,14.3,0,0,0,4.8,51.874v12a.442.442,0,0,1-.073.258.619.619,0,0,1-.248.182A1.957,1.957,0,0,1,4,64.425a6.837,6.837,0,0,1-.782.035,6.71,6.71,0,0,1-.765-.035,2.077,2.077,0,0,1-.482-.115.545.545,0,0,1-.251-.182.5.5,0,0,1-.063-.258V46.709a.534.534,0,0,1,.056-.258.489.489,0,0,1,.227-.189,1.223,1.223,0,0,1,.44-.115,6.425,6.425,0,0,1,.705-.028,6.42,6.42,0,0,1,.695.028,1.057,1.057,0,0,1,.43.115.573.573,0,0,1,.22.189.467.467,0,0,1,.066.258v2.266A11.206,11.206,0,0,1,7.309,46.6a5.653,5.653,0,0,1,2.755-.754,6.878,6.878,0,0,1,1.917.248,5.145,5.145,0,0,1,1.5.695,4.737,4.737,0,0,1,1.107,1.069,6.214,6.214,0,0,1,.761,1.383,17.35,17.35,0,0,1,1.631-1.582,9.6,9.6,0,0,1,1.488-1.048,5.847,5.847,0,0,1,1.393-.583,5.177,5.177,0,0,1,1.362-.182,6.049,6.049,0,0,1,2.783.58,5.081,5.081,0,0,1,1.823,1.558,6.239,6.239,0,0,1,.992,2.277,12.575,12.575,0,0,1,.293,2.755Z" transform="translate(4.132 114.271)" fill="#f0f6e9"/>
      <path id="Path_264" data-name="Path 264" d="M29.649,55.1a12.935,12.935,0,0,1-.555,3.862A8.646,8.646,0,0,1,27.441,62,7.486,7.486,0,0,1,24.7,63.992a9.511,9.511,0,0,1-3.821.716,9.915,9.915,0,0,1-3.691-.629,6.714,6.714,0,0,1-2.626-1.83,7.821,7.821,0,0,1-1.565-2.92,13.692,13.692,0,0,1-.51-3.89,13.03,13.03,0,0,1,.541-3.859,8.381,8.381,0,0,1,1.641-3.042A7.353,7.353,0,0,1,17.4,46.555a9.621,9.621,0,0,1,3.835-.705,9.909,9.909,0,0,1,3.688.629,6.727,6.727,0,0,1,2.623,1.83,7.882,7.882,0,0,1,1.572,2.92,13.222,13.222,0,0,1,.531,3.869m-3.262.21a12.665,12.665,0,0,0-.265-2.63,6.4,6.4,0,0,0-.856-2.176,4.225,4.225,0,0,0-1.613-1.477,5.355,5.355,0,0,0-2.539-.545,5.479,5.479,0,0,0-2.42.5,4.458,4.458,0,0,0-1.662,1.4,6.413,6.413,0,0,0-.974,2.148,10.82,10.82,0,0,0-.314,2.707A13.3,13.3,0,0,0,16,57.881a6.228,6.228,0,0,0,.863,2.165,4.381,4.381,0,0,0,1.631,1.467,5.355,5.355,0,0,0,2.539.545,5.4,5.4,0,0,0,2.4-.5,4.47,4.47,0,0,0,1.68-1.39,5.989,5.989,0,0,0,.957-2.137,11.269,11.269,0,0,0,.314-2.727" transform="translate(31.114 114.271)" fill="#f0f6e9"/>
      <path id="Path_265" data-name="Path 265" d="M35.053,69.607a.5.5,0,0,1-.077.269.561.561,0,0,1-.258.189,1.85,1.85,0,0,1-.5.115,7.589,7.589,0,0,1-.824.038c-.339,0-.622-.01-.849-.028a3.046,3.046,0,0,1-.562-.1,1.026,1.026,0,0,1-.37-.189,1.424,1.424,0,0,1-.258-.3l-7.246-9.5v9.513a.427.427,0,0,1-.073.258.579.579,0,0,1-.251.182,1.624,1.624,0,0,1-.475.115,6.725,6.725,0,0,1-.782.038,6.613,6.613,0,0,1-.765-.038,1.773,1.773,0,0,1-.482-.115.522.522,0,0,1-.251-.182.48.48,0,0,1-.063-.258V44.149a.542.542,0,0,1,.063-.265.512.512,0,0,1,.251-.192,2.077,2.077,0,0,1,.482-.115,6.711,6.711,0,0,1,.765-.035,6.838,6.838,0,0,1,.782.035,1.883,1.883,0,0,1,.475.115.566.566,0,0,1,.251.192.481.481,0,0,1,.073.265V59.672l6.485-7.131a1.7,1.7,0,0,1,.321-.314,1.654,1.654,0,0,1,.416-.21,2.186,2.186,0,0,1,.559-.115c.217-.021.475-.028.782-.028s.583.007.8.028a2.386,2.386,0,0,1,.52.1.571.571,0,0,1,.286.168.415.415,0,0,1,.087.276.99.99,0,0,1-.122.461,2.8,2.8,0,0,1-.412.534l-6.216,6.216L34.6,68.713a4.035,4.035,0,0,1,.353.524.842.842,0,0,1,.1.37" transform="translate(52.243 108.516)" fill="#f0f6e9"/>
      <path id="Path_266" data-name="Path 266" d="M42.91,63.678a.468.468,0,0,1-.07.258.514.514,0,0,1-.237.182,1.827,1.827,0,0,1-.447.115,5.3,5.3,0,0,1-.677.035,5.6,5.6,0,0,1-.712-.035,1.681,1.681,0,0,1-.44-.115.474.474,0,0,1-.22-.182.533.533,0,0,1-.056-.258V61.412a10.671,10.671,0,0,1-2.9,2.361,6.235,6.235,0,0,1-2.9.744,6.576,6.576,0,0,1-2.892-.569,5.131,5.131,0,0,1-1.9-1.554,6.258,6.258,0,0,1-1.037-2.287,13.62,13.62,0,0,1-.314-3.178V46.517a.5.5,0,0,1,.063-.258.563.563,0,0,1,.258-.189,1.481,1.481,0,0,1,.5-.115c.206-.021.457-.028.765-.028s.559.007.761.028a1.394,1.394,0,0,1,.485.115.637.637,0,0,1,.255.189.422.422,0,0,1,.08.258v9.991a10.633,10.633,0,0,0,.217,2.413,4.486,4.486,0,0,0,.671,1.544,3.061,3.061,0,0,0,1.132.992,3.442,3.442,0,0,0,1.6.353,4.042,4.042,0,0,0,2.357-.838,13.58,13.58,0,0,0,2.487-2.459v-12a.5.5,0,0,1,.066-.258.563.563,0,0,1,.258-.189,1.479,1.479,0,0,1,.485-.115c.2-.021.454-.028.775-.028.3,0,.559.007.761.028a1.293,1.293,0,0,1,.475.115.708.708,0,0,1,.258.189.405.405,0,0,1,.087.258Z" transform="translate(70.066 114.463)" fill="#f0f6e9"/>
      <path id="Path_267" data-name="Path 267" d="M48.009,59.2a5.358,5.358,0,0,1-.492,2.343,4.709,4.709,0,0,1-1.379,1.736A6.189,6.189,0,0,1,44,64.349a9.742,9.742,0,0,1-2.727.363,10.365,10.365,0,0,1-1.746-.143,9.983,9.983,0,0,1-1.488-.363,7.236,7.236,0,0,1-1.114-.457,3.2,3.2,0,0,1-.671-.43,1.026,1.026,0,0,1-.3-.534,3.469,3.469,0,0,1-.1-.932,4.275,4.275,0,0,1,.035-.611,2.711,2.711,0,0,1,.1-.4.413.413,0,0,1,.164-.217.419.419,0,0,1,.237-.066,1.36,1.36,0,0,1,.618.255c.272.171.608.36,1.013.562a8.945,8.945,0,0,0,1.418.562,6.226,6.226,0,0,0,1.889.258,5.651,5.651,0,0,0,1.449-.171,3.528,3.528,0,0,0,1.125-.506,2.187,2.187,0,0,0,.737-.849,2.693,2.693,0,0,0,.251-1.219,1.985,1.985,0,0,0-.37-1.222,3.441,3.441,0,0,0-.981-.877,8.064,8.064,0,0,0-1.369-.677q-.765-.293-1.579-.618a16.985,16.985,0,0,1-1.579-.733,5.939,5.939,0,0,1-1.383-1,4.573,4.573,0,0,1-.985-1.411,4.726,4.726,0,0,1-.37-1.966,4.9,4.9,0,0,1,.391-1.935,4.574,4.574,0,0,1,1.17-1.62,5.932,5.932,0,0,1,1.956-1.118,8.151,8.151,0,0,1,2.741-.419,8.3,8.3,0,0,1,1.369.115,9.641,9.641,0,0,1,1.243.286,6.057,6.057,0,0,1,.939.37,4.772,4.772,0,0,1,.594.356,1.1,1.1,0,0,1,.265.265.882.882,0,0,1,.1.258c.014.094.035.213.052.353a3.537,3.537,0,0,1,.031.513,4.339,4.339,0,0,1-.031.562,1.31,1.31,0,0,1-.094.391.558.558,0,0,1-.157.22.366.366,0,0,1-.213.066,1.041,1.041,0,0,1-.5-.21,7.3,7.3,0,0,0-.835-.447,9.2,9.2,0,0,0-1.215-.447,5.377,5.377,0,0,0-1.592-.213,5.049,5.049,0,0,0-1.411.182,2.745,2.745,0,0,0-1,.517,2.174,2.174,0,0,0-.59.789,2.469,2.469,0,0,0-.2.992,2.011,2.011,0,0,0,.384,1.25,3.606,3.606,0,0,0,.992.887,8.59,8.59,0,0,0,1.39.688c.524.2,1.058.412,1.6.629s1.072.457,1.6.723a6.044,6.044,0,0,1,1.4.974,4.408,4.408,0,0,1,.981,1.372,4.539,4.539,0,0,1,.374,1.907" transform="translate(89.371 114.271)" fill="#f0f6e9"/>
      <path id="Path_268" data-name="Path 268" d="M58.324,54.549a1.324,1.324,0,0,1-.374,1.058,1.287,1.287,0,0,1-.852.314h-11.3A10.747,10.747,0,0,0,46.08,58.5a5.014,5.014,0,0,0,.96,1.963,4.312,4.312,0,0,0,1.746,1.261,6.982,6.982,0,0,0,2.623.437,10.826,10.826,0,0,0,2.186-.2,13.029,13.029,0,0,0,1.655-.447c.468-.168.852-.318,1.149-.451a1.908,1.908,0,0,1,.684-.2.458.458,0,0,1,.237.066.468.468,0,0,1,.164.2,1.354,1.354,0,0,1,.084.374,5.358,5.358,0,0,1,.028.58c0,.168-.007.311-.017.43s-.028.23-.045.325a.881.881,0,0,1-.1.258,1.081,1.081,0,0,1-.168.22,3,3,0,0,1-.622.342,9.456,9.456,0,0,1-1.338.468q-.817.225-1.9.409a13.713,13.713,0,0,1-2.3.182,10.624,10.624,0,0,1-3.709-.59,6.864,6.864,0,0,1-2.679-1.757,7.49,7.49,0,0,1-1.641-2.916,13.57,13.57,0,0,1-.552-4.082,12.772,12.772,0,0,1,.573-3.974,8.4,8.4,0,0,1,1.648-3,7.167,7.167,0,0,1,2.605-1.886,8.506,8.506,0,0,1,3.412-.66,8.227,8.227,0,0,1,3.44.65,6.446,6.446,0,0,1,2.336,1.746,7,7,0,0,1,1.345,2.574,11.251,11.251,0,0,1,.43,3.157Zm-3.164-.936a5.741,5.741,0,0,0-1.1-3.89,4.207,4.207,0,0,0-3.447-1.411,4.614,4.614,0,0,0-2.053.437,4.449,4.449,0,0,0-1.474,1.163,5.307,5.307,0,0,0-.922,1.69,7.04,7.04,0,0,0-.367,2.012Z" transform="translate(106.009 114.271)" fill="#f0f6e9"/>
      <path id="Path_269" data-name="Path 269" d="M61.159,65.7a4.136,4.136,0,0,1-.073.877,1,1,0,0,1-.23.478,1.543,1.543,0,0,1-.457.286,4.071,4.071,0,0,1-.695.22c-.262.056-.538.1-.831.143a7.336,7.336,0,0,1-.877.056,6.664,6.664,0,0,1-2.291-.353,3.707,3.707,0,0,1-1.561-1.069,4.394,4.394,0,0,1-.887-1.809,10.844,10.844,0,0,1-.276-2.588V51.913h-2.4a.51.51,0,0,1-.457-.3,2.119,2.119,0,0,1-.171-.992A3.066,3.066,0,0,1,50,50.007a1.534,1.534,0,0,1,.122-.409.487.487,0,0,1,.2-.23A.61.61,0,0,1,50.6,49.3H52.98V45.222a.484.484,0,0,1,.066-.251.512.512,0,0,1,.248-.2,1.629,1.629,0,0,1,.485-.122,5.85,5.85,0,0,1,.761-.038,6.025,6.025,0,0,1,.782.038,1.5,1.5,0,0,1,.478.122.612.612,0,0,1,.248.2.435.435,0,0,1,.077.251V49.3h4.4a.524.524,0,0,1,.265.066.532.532,0,0,1,.2.23,1.228,1.228,0,0,1,.122.409,3.825,3.825,0,0,1,.038.611,2.119,2.119,0,0,1-.171.992.51.51,0,0,1-.457.3h-4.4v9.572a5.429,5.429,0,0,0,.524,2.682,1.988,1.988,0,0,0,1.879.9,3.153,3.153,0,0,0,.782-.087c.227-.056.433-.115.611-.178s.328-.126.454-.185a.887.887,0,0,1,.346-.084.383.383,0,0,1,.182.049.317.317,0,0,1,.133.178,2.186,2.186,0,0,1,.084.363,3.328,3.328,0,0,1,.038.573" transform="translate(124.487 111.183)" fill="#f0f6e9"/>
      <path id="Path_270" data-name="Path 270" d="M71.359,63.678a.5.5,0,0,1-.07.258.526.526,0,0,1-.241.182,1.827,1.827,0,0,1-.447.115,5.229,5.229,0,0,1-.678.035,5.64,5.64,0,0,1-.712-.035,1.681,1.681,0,0,1-.44-.115.474.474,0,0,1-.22-.182.534.534,0,0,1-.052-.258V61.412a10.733,10.733,0,0,1-2.9,2.361,6.221,6.221,0,0,1-2.9.744,6.592,6.592,0,0,1-2.9-.569,5.131,5.131,0,0,1-1.9-1.554,6.258,6.258,0,0,1-1.037-2.287,13.811,13.811,0,0,1-.314-3.178V46.517a.5.5,0,0,1,.063-.258.557.557,0,0,1,.262-.189,1.459,1.459,0,0,1,.492-.115c.21-.021.457-.028.768-.028s.559.007.758.028a1.394,1.394,0,0,1,.485.115.652.652,0,0,1,.258.189.42.42,0,0,1,.077.258v9.991a10.6,10.6,0,0,0,.22,2.413,4.417,4.417,0,0,0,.667,1.544,3.089,3.089,0,0,0,1.131.992,3.442,3.442,0,0,0,1.6.353,4.034,4.034,0,0,0,2.357-.838,13.472,13.472,0,0,0,2.487-2.459v-12a.468.468,0,0,1,.07-.258.55.55,0,0,1,.255-.189A1.5,1.5,0,0,1,69,45.955c.2-.021.454-.028.775-.028s.559.007.765.028a1.291,1.291,0,0,1,.471.115.679.679,0,0,1,.258.189.408.408,0,0,1,.091.258Z" transform="translate(140.961 114.463)" fill="#f0f6e9"/>
      <path id="Path_271" data-name="Path 271" d="M85.163,47.461a1.881,1.881,0,0,1-.182.964.533.533,0,0,1-.464.293H82.058a3.906,3.906,0,0,1,.932,1.516,5.624,5.624,0,0,1,.265,1.729,6.811,6.811,0,0,1-.475,2.633,5.317,5.317,0,0,1-1.362,1.935,6.128,6.128,0,0,1-2.109,1.208,8.287,8.287,0,0,1-2.707.423,7.038,7.038,0,0,1-1.994-.279,4.071,4.071,0,0,1-1.456-.695,2.974,2.974,0,0,0-.562.782,2.225,2.225,0,0,0-.224,1.009,1.316,1.316,0,0,0,.622,1.107,3.015,3.015,0,0,0,1.652.478l4.481.189a9.4,9.4,0,0,1,2.347.353,5.871,5.871,0,0,1,1.847.9,4.14,4.14,0,0,1,1.222,1.428,4.267,4.267,0,0,1,.437,1.973,5.271,5.271,0,0,1-.5,2.253,5.189,5.189,0,0,1-1.516,1.879,7.693,7.693,0,0,1-2.605,1.278,13.418,13.418,0,0,1-3.737.464,15.152,15.152,0,0,1-3.538-.353,7.593,7.593,0,0,1-2.392-.964,3.725,3.725,0,0,1-1.355-1.456,4.1,4.1,0,0,1-.419-1.84,4.906,4.906,0,0,1,.154-1.222,4.383,4.383,0,0,1,.468-1.125,5.527,5.527,0,0,1,.779-1.02,10.62,10.62,0,0,1,1.079-.964,3.324,3.324,0,0,1-1.383-1.2,2.9,2.9,0,0,1-.451-1.565,4.444,4.444,0,0,1,.478-2.078,6.907,6.907,0,0,1,1.184-1.638,5.676,5.676,0,0,1-.936-1.592,6,6,0,0,1-.342-2.144,6.692,6.692,0,0,1,.5-2.633,5.586,5.586,0,0,1,1.372-1.963,6.012,6.012,0,0,1,2.106-1.233,8.2,8.2,0,0,1,2.682-.426,11.3,11.3,0,0,1,1.46.084,10.581,10.581,0,0,1,1.264.237h5.19A.519.519,0,0,1,85,46.5a2.2,2.2,0,0,1,.161.964M81.828,65.579a1.934,1.934,0,0,0-.908-1.708,4.557,4.557,0,0,0-2.448-.639l-4.442-.154a8.646,8.646,0,0,0-1,.908,4.834,4.834,0,0,0-.618.817,2.779,2.779,0,0,0-.318.775,3.6,3.6,0,0,0-.084.782,2.02,2.02,0,0,0,1.257,1.875,7.873,7.873,0,0,0,3.51.639,8.76,8.76,0,0,0,2.392-.276,4.684,4.684,0,0,0,1.558-.733,2.736,2.736,0,0,0,.845-1.048,3.036,3.036,0,0,0,.258-1.24m-1.582-13.6a3.737,3.737,0,0,0-.964-2.734,3.654,3.654,0,0,0-2.738-.981,3.867,3.867,0,0,0-1.592.3,3.118,3.118,0,0,0-1.125.838,3.585,3.585,0,0,0-.667,1.229,4.924,4.924,0,0,0-.22,1.46A3.362,3.362,0,0,0,76.6,55.738a4.044,4.044,0,0,0,1.62-.3,3.059,3.059,0,0,0,1.135-.821,3.433,3.433,0,0,0,.667-1.208,4.667,4.667,0,0,0,.22-1.432" transform="translate(171.761 114.301)" fill="#f0f6e9"/>
      <path id="Path_272" data-name="Path 272" d="M86.995,47.834c0,.279-.01.513-.024.705a2.269,2.269,0,0,1-.07.451.674.674,0,0,1-.143.244.33.33,0,0,1-.241.087,1.03,1.03,0,0,1-.374-.087c-.147-.056-.311-.112-.5-.168a6.245,6.245,0,0,0-.618-.164,3.568,3.568,0,0,0-.74-.077,2.38,2.38,0,0,0-.939.192,3.467,3.467,0,0,0-.96.629,7.732,7.732,0,0,0-1.058,1.163c-.374.482-.775,1.076-1.222,1.774V63.87a.436.436,0,0,1-.077.258.588.588,0,0,1-.248.182,1.774,1.774,0,0,1-.478.115,6.725,6.725,0,0,1-.782.038,6.657,6.657,0,0,1-.765-.038,1.952,1.952,0,0,1-.482-.115.54.54,0,0,1-.251-.182.489.489,0,0,1-.059-.258V46.709a.543.543,0,0,1,.052-.258.5.5,0,0,1,.23-.189,1.185,1.185,0,0,1,.44-.115,6.315,6.315,0,0,1,.7-.028,6.49,6.49,0,0,1,.7.028,1.055,1.055,0,0,1,.426.115.548.548,0,0,1,.22.189.475.475,0,0,1,.066.258v2.5a13.313,13.313,0,0,1,1.327-1.68A7.02,7.02,0,0,1,82.3,46.51a3.545,3.545,0,0,1,1.1-.517,4.309,4.309,0,0,1,1.093-.143c.168,0,.356.01.566.028a5.346,5.346,0,0,1,.657.108,4.957,4.957,0,0,1,.622.171,1.28,1.28,0,0,1,.388.189.462.462,0,0,1,.154.182.971.971,0,0,1,.066.22,2.7,2.7,0,0,1,.038.391c.007.171.014.405.014.695" transform="translate(191.818 114.271)" fill="#f0f6e9"/>
      <path id="Path_273" data-name="Path 273" d="M99.74,55.1a12.824,12.824,0,0,1-.555,3.862A8.584,8.584,0,0,1,97.536,62a7.486,7.486,0,0,1-2.745,1.991,9.528,9.528,0,0,1-3.824.716,9.915,9.915,0,0,1-3.691-.629,6.727,6.727,0,0,1-2.623-1.83,7.821,7.821,0,0,1-1.565-2.92,13.564,13.564,0,0,1-.513-3.89,12.915,12.915,0,0,1,.545-3.859,8.375,8.375,0,0,1,1.638-3.042A7.366,7.366,0,0,1,87.5,46.555a9.592,9.592,0,0,1,3.831-.705,9.915,9.915,0,0,1,3.691.629,6.753,6.753,0,0,1,2.623,1.83,7.882,7.882,0,0,1,1.572,2.92A13.226,13.226,0,0,1,99.74,55.1m-3.262.21a12.67,12.67,0,0,0-.262-2.63A6.474,6.474,0,0,0,95.36,50.5a4.261,4.261,0,0,0-1.617-1.477A5.345,5.345,0,0,0,91.2,48.48a5.474,5.474,0,0,0-2.417.5,4.469,4.469,0,0,0-1.666,1.4,6.34,6.34,0,0,0-.971,2.148,10.817,10.817,0,0,0-.318,2.707,13.043,13.043,0,0,0,.262,2.651,6.228,6.228,0,0,0,.863,2.165,4.37,4.37,0,0,0,1.627,1.467,6.138,6.138,0,0,0,4.945.049,4.459,4.459,0,0,0,1.676-1.39,5.994,5.994,0,0,0,.96-2.137,11.275,11.275,0,0,0,.311-2.727" transform="translate(205.8 114.271)" fill="#f0f6e9"/>
      <path id="Path_274" data-name="Path 274" d="M105.823,63.678a.468.468,0,0,1-.07.258.514.514,0,0,1-.237.182,1.827,1.827,0,0,1-.447.115,5.3,5.3,0,0,1-.677.035,5.6,5.6,0,0,1-.712-.035,1.681,1.681,0,0,1-.44-.115.473.473,0,0,1-.22-.182.533.533,0,0,1-.056-.258V61.412a10.67,10.67,0,0,1-2.9,2.361,6.235,6.235,0,0,1-2.9.744,6.576,6.576,0,0,1-2.892-.569,5.131,5.131,0,0,1-1.9-1.554,6.259,6.259,0,0,1-1.037-2.287,13.62,13.62,0,0,1-.314-3.178V46.517a.5.5,0,0,1,.063-.258.563.563,0,0,1,.258-.189,1.481,1.481,0,0,1,.5-.115c.206-.021.457-.028.765-.028s.559.007.761.028a1.394,1.394,0,0,1,.485.115.637.637,0,0,1,.255.189.422.422,0,0,1,.08.258v9.991a10.632,10.632,0,0,0,.217,2.413,4.487,4.487,0,0,0,.67,1.544,3.062,3.062,0,0,0,1.132.992,3.442,3.442,0,0,0,1.6.353,4.042,4.042,0,0,0,2.357-.838,13.58,13.58,0,0,0,2.487-2.459v-12a.5.5,0,0,1,.066-.258.563.563,0,0,1,.258-.189,1.479,1.479,0,0,1,.485-.115c.2-.021.454-.028.775-.028.3,0,.559.007.761.028a1.293,1.293,0,0,1,.475.115.708.708,0,0,1,.258.189.405.405,0,0,1,.087.258Z" transform="translate(226.862 114.463)" fill="#f0f6e9"/>
      <path id="Path_275" data-name="Path 275" d="M114.955,55.021a15.43,15.43,0,0,1-.485,4.044,8.834,8.834,0,0,1-1.432,3.042,6.419,6.419,0,0,1-2.336,1.924,7.205,7.205,0,0,1-3.181.678,5.993,5.993,0,0,1-1.414-.154,5.321,5.321,0,0,1-1.268-.475,7.458,7.458,0,0,1-1.229-.821c-.409-.328-.842-.719-1.3-1.163v8.581a.465.465,0,0,1-.073.269.545.545,0,0,1-.248.189,1.651,1.651,0,0,1-.478.115,6.725,6.725,0,0,1-.782.038,6.506,6.506,0,0,1-.761-.038,1.769,1.769,0,0,1-.485-.115.464.464,0,0,1-.248-.189.521.521,0,0,1-.066-.269V46.709a.575.575,0,0,1,.056-.279.481.481,0,0,1,.227-.182,1.629,1.629,0,0,1,.44-.1c.178-.017.391-.028.65-.028s.485.01.657.028a1.612,1.612,0,0,1,.43.1.6.6,0,0,1,.241.182.534.534,0,0,1,.063.279v2.3a18.976,18.976,0,0,1,1.509-1.393,9.135,9.135,0,0,1,1.46-.981,6.87,6.87,0,0,1,1.505-.59,7.159,7.159,0,0,1,4.812.524,6.032,6.032,0,0,1,2.148,1.984,8.825,8.825,0,0,1,1.212,2.927,16.039,16.039,0,0,1,.381,3.538m-3.262.363a15.925,15.925,0,0,0-.2-2.546,7.344,7.344,0,0,0-.688-2.183,4.1,4.1,0,0,0-1.317-1.526,3.516,3.516,0,0,0-2.053-.573,4.164,4.164,0,0,0-1.2.182,4.932,4.932,0,0,0-1.212.573,8.634,8.634,0,0,0-1.285,1.03,16.164,16.164,0,0,0-1.421,1.572V58.74a13.67,13.67,0,0,0,2.476,2.42,4.143,4.143,0,0,0,2.459.842,3.606,3.606,0,0,0,2.043-.573,4.316,4.316,0,0,0,1.379-1.526,7.668,7.668,0,0,0,.779-2.134,11.454,11.454,0,0,0,.248-2.385" transform="translate(247.15 114.271)" fill="#f0f6e9"/>
    </g>
  </g>
  <path id="Path_276" data-name="Path 276" d="M232.341,73.281H38.956v-.573H232.341Zm0-29.2H38.956v-.573H232.341Zm0-29.2H38.956V14.31H232.341Z" transform="translate(97.089 35.665)" fill="#316a8d"/>
  <g id="Group_85" data-name="Group 85">
    <g id="Group_84" data-name="Group 84" clip-path="url(#clip-path)">
      <path id="Path_277" data-name="Path 277" d="M123.315,14.225A8.462,8.462,0,0,0,115.1,17.2l-.066.08V52.214c0,4.337-.988,7.742-2.944,10.117-1.938,2.357-5.008,3.552-9.118,3.552a15.988,15.988,0,0,1-5.63-.873,8.935,8.935,0,0,1-3.695-2.546,10.263,10.263,0,0,1-2.057-4.212,24.693,24.693,0,0,1-.639-5.947V15.971l-.108-.084A8.466,8.466,0,0,0,82.626,14.6l-.185.07V52.93a28.85,28.85,0,0,0,1.1,8.242,16.193,16.193,0,0,0,3.541,6.373,15.981,15.981,0,0,0,6.286,4.11A26.662,26.662,0,0,0,102.7,73.1a24.262,24.262,0,0,0,8.86-1.512,18.112,18.112,0,0,0,6.548-4.306,18.373,18.373,0,0,0,4.055-6.747,26.787,26.787,0,0,0,1.379-8.811V14.27Z" transform="translate(205.462 35.051)" fill="#f0f6e9"/>
      <path id="Path_278" data-name="Path 278" d="M65.251,19.98v-.056H77.733V17.958a3.762,3.762,0,0,0-3.726-3.793H42.23A3.766,3.766,0,0,0,38.5,17.958v25.5a3.765,3.765,0,0,0,3.726,3.786H72V68.659H58.686v.021H38.5v2.015A3.779,3.779,0,0,0,42.23,74.5H74.007a3.772,3.772,0,0,0,3.726-3.81V44.97a3.77,3.77,0,0,0-3.726-3.81H44.238V19.98Z" transform="translate(95.963 35.303)" fill="#f0f6e9"/>
      <path id="Path_279" data-name="Path 279" d="M55.488,75.784a3.005,3.005,0,1,1,0-6.01h34.35a3.005,3.005,0,1,1,0,6.01Zm0-28.961a3.007,3.007,0,0,1,0-6.014h34.35a3.007,3.007,0,1,1,0,6.014Zm0-26.6a3.007,3.007,0,0,1,0-6.014h34.35a3.007,3.007,0,1,1,0,6.014Z" transform="translate(130.797 35.41)" fill="#dd2136"/>
      <path id="Path_280" data-name="Path 280" d="M12.276,41.928H85.96v6.014H12.276Zm0-22.934V12.98H85.96v6.014Z" transform="translate(30.595 32.35)" fill="#dd2136"/>
      <path id="Path_281" data-name="Path 281" d="M88.106,4.691H14.418a3,3,0,0,0-3,3.007V111.115a3.005,3.005,0,1,0,6.01,0V97.544H85.1v13.571a3.005,3.005,0,1,0,6.01,0V7.7a3,3,0,0,0-3-3.007M17.425,10.7H85.1V91.534H17.425Z" transform="translate(28.449 11.691)" fill="#f0f6e9"/>
      <path id="Path_282" data-name="Path 282" d="M84.463,73.62V21.641H68.1a1.721,1.721,0,0,1-1.722-1.722V14.269h45.515V19.92a1.723,1.723,0,0,1-1.722,1.722H93.127V73.62Z" transform="translate(165.428 35.562)" fill="#f0f6e9"/>
    </g>
  </g>
</svg>
